<svg viewBox="0 0 350 58.200859556979026" preserveAspectRatio="xMidYMid meet" class="css-8aabad" id="ahbgebbe"><defs id="SvgjsDefs13776"></defs><g id="SvgjsG13777" featurekey="nameFeature-0" transform="matrix(1.3344641589069792,0,0,1.3344641589069792,-1.954586450051086,-9.252292555796503)" fill="#111"><path d="M11.035 39.76562 q-0.99609375 0.625 -2.265625 0.625 t-2.2656 -0.625 q-0.99609375 0.625 -1.845703125 0.625 t-1.3965 -0.14648 t-0.95703 -0.40039 q-0.83984375 -0.5078125 -0.83984375 -1.26953125 q0 -0.390625 0.21484375 -0.68359375 q0.4296875 0.33203125 1.09375 0.33203125 q1.73828125 0 2.40234375 -1.484375 l0 -9.5508 q0 -0.8984375 -0.37109375 -1.328125 q-0.5859375 -0.72265625 -2.01171875 -1.42578125 q1.328125 -0.60546875 1.71875 -1.07421875 q0.6640625 -0.76171875 0.6640625 -1.71875 l0 -8.2422 q-0.6640625 -1.50390625 -2.40234375 -1.50390625 q-0.6640625 0 -1.09375 0.33203125 q-0.21484375 -0.29296875 -0.21484375 -0.673828125 t0.22461 -0.71289 t0.61523 -0.56641 q0.8984375 -0.546875 2.060546875 -0.546875 t2.1387 0.64453 q1.015625 -0.64453125 2.265625 -0.64453125 t2.2656 0.64453 q2.20703125 -0.83984375 4.892578125 -0.83984375 t4.502 0.48828 t3.125 1.3867 q2.63671875 1.81640625 3.28125 5.05859375 q0.25390625 1.4453125 1.85546875 2.1875 q-1.5234375 0.859375 -1.9921875 2.734375 q-0.95703125 3.8671875 -4.78515625 4.82421875 q1.97265625 0.52734375 3.22265625 2.16796875 q1.2890625 1.69921875 1.2890625 4.00390625 l0 1.9531 q0 2.8125 1.81640625 3.6328125 q0.546875 0.25390625 1.19140625 0.25390625 t1.0742 -0.33203 q0.21484375 0.29296875 0.21484375 0.673828125 t-0.19531 0.71289 t-0.52734 0.56641 q-0.703125 0.546875 -1.640625 0.546875 t-1.8359 -0.50781 q-1.640625 0.8984375 -3.06640625 0.17578125 q-0.546875 0.33203125 -1.15234375 0.33203125 t-1.1621 -0.27344 t-0.98633 -0.89844 q-0.91796875 -1.34765625 -0.91796875 -4.140625 l0 -1.4453 q0 -4.51171875 -2.578125 -5.859375 q-0.859375 -0.44921875 -2.01171875 -0.44921875 l-2.2852 0 l0 9.5117 q0.52734375 1.38671875 2.01171875 1.38671875 q0.6640625 0 1.09375 -0.33203125 q0.21484375 0.29296875 0.21484375 0.859375 t-0.61523 1.1035 t-1.8457 0.53711 t-2.1875 -0.625 z M16.113 12.129000000000001 q-3.75 0 -3.75 2.91015625 l0 7.9883 q0 1.015625 0.80078125 1.3671875 q0.76171875 0.33203125 2.255859375 0.33203125 t2.0898 -0.16602 t1.0254 -0.57617 q0.87890625 -0.83984375 0.87890625 -2.8125 l0 -5.7031 q0 -2.44140625 -2.03125 -3.125 q-0.60546875 -0.21484375 -1.26953125 -0.21484375 z M20.723 13.379000000000001 q0.60546875 1.3671875 0.60546875 4.375 q0 5.17578125 -0.48828125 6.19140625 q1.07421875 -0.21484375 1.54296875 -2.87109375 l0.15625 -0.80078 q0.21484375 -1.26953125 1.25 -1.62109375 q-0.76171875 -0.25390625 -0.9765625 -0.60546875 q-0.234375 -0.41015625 -0.419921875 -1.396484375 t-0.38086 -1.5918 t-0.41016 -0.95703 q-0.37109375 -0.625 -0.87890625 -0.72265625 z M7.0508 34.8242 q0.9765625 -0.37109375 1.07421875 -2.55859375 q0.1171875 -2.1875 0.1171875 -6.0546875 t-0.0097656 -5.1465 t-0.029297 -2.0605 q-0.05859375 -2.3046875 -0.439453125 -2.783203125 t-0.71289 -0.63477 q0 6.796875 -0.234375 7.734375 q-0.2734375 0.78125 -1.328125 1.11328125 q1.171875 0.41015625 1.328125 0.99609375 q0.234375 0.9375 0.234375 6.85546875 l0 2.5391 z M20.527 29.473 q0.78125 0.87890625 0.78125 2.1484375 l0 2.5781 q0 3.2421875 1.2890625 3.45703125 q0.3515625 0.05859375 0.68359375 -0.01953125 q-0.703125 -1.09375 -0.703125 -2.3046875 l0 -2.7344 q0 -1.54296875 -0.4296875 -2.1875 q-0.7421875 -1.09375 -1.62109375 -0.9375 z M32.554709375 34.8437 q-0.712890625 -1.71875 -0.869140625 -2.94921875 t-0.26367 -1.582 t-0.36133 -0.66406 q-0.5078125 -0.64453125 -1.85546875 -1.30859375 q1.69921875 -0.76171875 2.16796875 -2.44140625 q0.13671875 -0.46875 0.21484375 -0.9375 q0.5078125 -3.49609375 3.37890625 -5.849609375 t6.6992 -2.3535 q3.984375 0 6.85546875 2.3828125 q2.79296875 2.32421875 3.30078125 5.8203125 q0.17578125 1.23046875 0.52734375 1.796875 q0.6640625 1.03515625 1.85546875 1.58203125 q-1.328125 0.64453125 -1.71875 1.1328125 q-0.52734375 0.68359375 -0.6640625 1.62109375 q-0.625 4.609375 -3.203125 7.001953125 t-6.875 2.3926 q-4.609375 0 -7.24609375 -2.67578125 q-1.23046875 -1.25 -1.943359375 -2.96875 z M41.705109375 19.512 q-3.3203125 0 -3.3203125 4.8828125 l0 8.6523 q0 4.6875 3.30078125 4.6875 q3.33984375 0 3.33984375 -4.6875 l0 -8.6523 q0 -4.8828125 -3.3203125 -4.8828125 z M46.900109375 34.8242 q0.9765625 -0.37109375 1.07421875 -2.55859375 q0.1171875 -2.1875 0.1171875 -3.251953125 t-0.0097656 -1.7773 t-0.029297 -1.4746 q-0.078125 -2.8515625 -0.44921875 -3.3203125 t-0.70313 -0.625 l0 13.008 z M35.201209375 34.8242 q0.2734375 -0.21484375 0.2734375 -0.48828125 q0 -0.4296875 -0.17578125 -1.09375 q-0.80078125 -3.06640625 -0.80078125 -4.267578125 t0.078125 -1.875 t0.19531 -1.3574 q0.25390625 -1.328125 0.52734375 -2.34375 q0.17578125 -0.6640625 0.17578125 -0.8984375 q0 -0.46875 -0.2734375 -0.68359375 q-0.8203125 0.9765625 -1.25 2.6171875 t-0.70313 2.8906 q-0.09765625 0.52734375 -1.15234375 1.015625 q1.0546875 0.48828125 1.15234375 0.9765625 q0.72265625 3.30078125 1.19140625 4.19921875 t0.76172 1.3086 z M73.17565625 40.39063 q-2.75390625 0 -2.96875 -3.80859375 q-0.99609375 1.796875 -2.685546875 2.8515625 t-3.6328 1.0547 t-3.1543 -0.52734 t-2.0117 -1.5234 q-1.5625 -1.953125 -1.5625 -5.546875 l0 -1.2109 q0 -2.265625 -2.3828125 -3.359375 q1.40625 -0.68359375 1.796875 -1.15234375 q0.5859375 -0.72265625 0.5859375 -1.62109375 l0 -2.6367 q0 -1.66015625 -1.1328125 -1.796875 q-0.33203125 -0.0390625 -0.83984375 -0.0390625 t-0.9375 0.33203 q-0.2734375 -0.37109375 -0.2734375 -0.771484375 t0.20508 -0.89844 t0.63477 -0.94727 q1.015625 -1.0546875 2.36328125 -1.0546875 t2.5391 0.44922 q0.859375 -1.23046875 2.03125 -1.23046875 q2.01171875 0 2.01171875 2.109375 l0 12.715 q0 3.7109375 1.71875 4.453125 q0.546875 0.234375 1.220703125 0.234375 t1.2207 -0.2832 t0.95703 -0.77148 q0.76171875 -0.95703125 0.9765625 -2.6171875 l0 -9.8828 q0 -2.2265625 -1.81640625 -2.2265625 q-0.6640625 0 -1.09375 0.33203125 q-0.2734375 -0.37109375 -0.2734375 -0.771484375 t0.20508 -0.83984 t0.63477 -0.81055 q0.95703125 -0.859375 2.333984375 -0.859375 t2.5684 0.44922 q0.859375 -1.23046875 2.03125 -1.23046875 q2.01171875 0 2.01171875 2.109375 l0 6.4844 q0 0.8984375 0.3515625 1.328125 q0.625 0.76171875 2.03125 1.4453125 q-2.3828125 1.09375 -2.3828125 3.359375 l0 5.0391 q0.37109375 1.50390625 1.62109375 1.50390625 q0.6640625 0 1.09375 -0.33203125 q0.2734375 0.37109375 0.2734375 0.927734375 t-0.55664 1.0645 t-1.7383 0.50781 t-2.2363 -0.625 q-0.78125 0.625 -1.73828125 0.625 z M71.71065625 34.8242 q1.1328125 -0.44921875 1.19140625 -4.31640625 l0 -1.875 t-0.0097656 -1.8066 t-0.029297 -1.4355 q-0.078125 -2.4609375 -0.44921875 -2.939453125 t-0.70313 -0.63477 l0 13.008 z M60.03125625 28.32 l0.058594 -2.5781 q0 -1.73828125 -0.1171875 -2.3046875 q-0.33203125 -1.484375 -0.9375 -1.62109375 l0 1.2695 q0 3.30078125 -0.146484375 3.876953125 t-0.46875 0.85938 t-0.94727 0.49805 q1.171875 0.41015625 1.328125 0.99609375 q0.234375 0.9375 0.234375 4.23828125 l0 1.2695 q0.5859375 -0.13671875 0.95703125 -1.73828125 q0.09765625 -0.44921875 0.09765625 -2.1875 z M82.400440625 40.76172 q-1.40625 -1.2890625 -1.40625 -3.203125 q0 -2.8515625 3.37890625 -4.6875 q-2.20703125 -1.54296875 -3.22265625 -4.8828125 q-0.33203125 -1.03515625 -0.6640625 -1.40625 q-0.48828125 -0.5859375 -1.6796875 -1.171875 q0.9765625 -0.44921875 1.494140625 -1.15234375 t0.89844 -1.8359 t1.0742 -2.168 t1.7871 -1.8164 q2.40234375 -1.6796875 6.19140625 -1.6796875 q1.2109375 0 2.51953125 0.25390625 q0.2734375 -2.12890625 1.89453125 -3.61328125 q1.6015625 -1.50390625 3.75 -1.50390625 q2.51953125 0 4.23828125 1.30859375 q0.9375 0.703125 1.875 0.52734375 q0.078125 1.5625 -1.2109375 2.01171875 q-0.21484375 2.63671875 -2.28515625 2.63671875 q-0.8203125 0 -0.99609375 -0.1171875 q0.29296875 -0.25390625 0.29296875 -0.654296875 t-0.33203 -0.69336 q-0.41015625 0.76171875 -1.8359375 0.76171875 q-0.78125 0 -1.23046875 -0.7421875 q0.7421875 -0.234375 1.171875 -0.712890625 t0.42969 -0.88867 q0 -1.07421875 -1.1328125 -1.07421875 q-2.1875 0 -2.55859375 3.3984375 q3.5546875 1.5234375 4.53125 4.78515625 q0.64453125 2.20703125 2.3828125 2.96875 q-1.5234375 0.76171875 -2.01171875 1.69921875 q-0.1953125 0.37109375 -0.3515625 0.87890625 q-1.0546875 3.3203125 -3.30078125 4.892578125 t-5.7813 1.5723 q-2.24609375 0 -3.90625 -0.546875 q-0.64453125 0.41015625 -0.64453125 0.908203125 t0.19531 0.83984 t0.70313 0.61523 q0.99609375 0.52734375 3.7890625 0.9375 q1.26953125 0.25390625 2.6171875 -1.640625 q0.078125 0.99609375 0.44921875 1.494140625 t0.82031 0.55664 q5.390625 0.80078125 6.97265625 3.515625 q0.546875 0.91796875 0.546875 2.353515625 t-0.91797 2.793 t-2.4805 2.3145 q-3.2421875 1.953125 -7.96875 1.953125 q-5.546875 0 -8.4765625 -1.81640625 q-2.51953125 -1.58203125 -2.51953125 -4.04296875 q0 -1.640625 1.66015625 -3.10546875 q0.546875 -0.46875 1.25 -0.8203125 z M89.275640625 31.6699 q0.4296875 0.166015625 1.005859375 0.166015625 t1.0059 -0.16602 t0.72266 -0.57617 q0.56640625 -0.80078125 0.56640625 -2.6953125 l0 -5.4102 q0 -1.89453125 -0.4296875 -2.5 t-0.85938 -0.77148 t-1.0059 -0.16602 t-1.0059 0.16602 t-0.70313 0.55664 q-0.5859375 0.8203125 -0.5859375 2.71484375 l0 5.4102 q0 1.89453125 0.4296875 2.5 t0.85938 0.77148 z M94.470640625 30.761699999999998 q0.8984375 -0.3125 1.03515625 -1.93359375 q0.13671875 -1.5234375 0.13671875 -3.41796875 q0 -2.9296875 -0.15625 -3.75 q-0.234375 -1.09375 -1.015625 -1.42578125 l0 10.527 z M84.294940625 30.761699999999998 q0.390625 -0.29296875 0.390625 -0.68359375 q0 -0.5078125 -0.13671875 -0.9765625 q-0.52734375 -1.796875 -0.52734375 -3.69140625 q0 -1.875 0.52734375 -3.671875 q0.13671875 -0.46875 0.13671875 -0.7421875 l0 -0.46875 q0 -0.17578125 -0.15625 -0.29296875 q-0.80078125 0.9765625 -1.162109375 2.2265625 t-0.57617 2.207 q-0.078125 0.29296875 -1.09375 0.7421875 q1.03515625 0.5078125 1.09375 0.76171875 l0.39063 1.6406 q0.5078125 2.0703125 1.11328125 2.94921875 z M83.298840625 37.7148 q-0.17578125 0.17578125 -0.17578125 0.5078125 q0.078125 2.109375 6.015625 3.18359375 q0.68359375 0.15625 0.9765625 1.484375 q0.09765625 -0.4296875 0.771484375 -0.712890625 t0.9082 -0.26367 q2.94921875 0.3515625 3.984375 0.6640625 q1.8359375 0.56640625 2.67578125 1.6796875 q0.234375 -0.2734375 0.234375 -0.703125 t-0.42969 -0.86914 t-1.4063 -0.77148 q-1.6796875 -0.60546875 -4.55078125 -0.9375 t-4.0332 -0.58594 t-2.1387 -0.625 q-2.12890625 -0.83984375 -2.83203125 -2.05078125 z M84.353540625 42.0117 q-1.38671875 0.60546875 -1.38671875 2.265625 q0 1.328125 2.01171875 2.40234375 q2.24609375 1.2109375 5.80078125 1.2109375 q4.375 0 5.68359375 -1.50390625 q0.37109375 -0.41015625 0.37109375 -0.869140625 t-0.43945 -0.81055 t-1.1426 -0.56641 q-1.03515625 -0.3515625 -3.26171875 -0.60546875 q-1.07421875 -0.1171875 -2.65625 1.58203125 q0 -1.09375 -0.361328125 -1.58203125 t-0.71289 -0.52734 q-2.265625 -0.29296875 -3.90625 -0.99609375 z M118.93003125 34.1016 q0.4296875 -0.8203125 1.58203125 -0.8203125 q0.78125 0 1.2109375 0.64453125 q0.3515625 0.5078125 0.3515625 1.240234375 t-0.37109 1.4746 t-1.0156 1.3477 t-1.4746 1.0742 t-1.7676 0.78125 q-1.93359375 0.64453125 -4.0234375 0.64453125 t-3.916 -0.69336 t-3.1348 -1.9434 q-2.55859375 -2.4609375 -3.125 -6.7578125 q-0.13671875 -0.95703125 -0.44921875 -1.3671875 q-0.5859375 -0.72265625 -1.93359375 -1.38671875 q1.69921875 -0.76171875 2.16796875 -2.44140625 q0.13671875 -0.46875 0.21484375 -0.9375 q0.48828125 -3.4375 3.4765625 -5.859375 q2.890625 -2.34375 6.46484375 -2.34375 q3.7109375 0 6.42578125 2.6171875 q2.8125 2.6953125 2.8125 6.62109375 q0 0.13671875 -0.009765625 0.2734375 t0.0097656 0.25391 q0.0390625 0.25390625 0.3125 0.29296875 q0.3515625 0.44921875 0.3515625 0.95703125 q0 1.171875 -1.25 1.38671875 q-0.3125 0.05859375 -0.9765625 0.15625 l-11.016 1.7578 l0 1.875 q0 2.265625 1.3671875 3.59375 q1.2890625 1.26953125 3.26171875 1.26953125 q2.08984375 0 3.359375 -0.859375 q1.19140625 -0.8203125 1.19140625 -2.1484375 q0 -0.3125 -0.09765625 -0.703125 z M115.51203125 27.793 l0 -5.4688 q0 -1.2890625 -0.5078125 -1.89453125 q-0.8984375 -1.03515625 -1.77734375 -1.03515625 t-1.4648 0.26367 t-1.0156 0.83008 q-0.8984375 1.19140625 -0.8984375 3.7109375 l0 4.5117 z M118.40203125 27.305 l0 -0.60547 q0 -3.6328125 -0.60546875 -4.39453125 q-0.2734375 -0.33203125 -0.60546875 -0.48828125 l0 5.6836 z M106.66403125 34.8242 q0.2734375 -0.21484375 0.2734375 -0.48828125 q0 -0.4296875 -0.17578125 -1.09375 q-0.80078125 -3.06640625 -0.80078125 -4.267578125 t0.078125 -1.875 t0.21484 -1.3574 q0.234375 -1.328125 0.5078125 -2.34375 q0.17578125 -0.6640625 0.17578125 -0.8984375 q0 -0.46875 -0.2734375 -0.68359375 q-0.8203125 0.9765625 -1.25 2.6171875 t-0.70313 2.8906 q-0.09765625 0.52734375 -1.15234375 1.015625 q1.0546875 0.48828125 1.15234375 0.9765625 q0.72265625 3.30078125 1.19140625 4.19921875 t0.76172 1.3086 z M148.4339375 34.1016 q0.4296875 -0.8203125 1.58203125 -0.8203125 q0.78125 0 1.2109375 0.64453125 q0.3515625 0.5078125 0.3515625 1.240234375 t-0.37109 1.4746 t-1.0156 1.3477 t-1.4746 1.0742 t-1.7676 0.78125 q-1.93359375 0.64453125 -4.0234375 0.64453125 t-3.916 -0.69336 t-3.1348 -1.9434 q-2.55859375 -2.4609375 -3.125 -6.7578125 q-0.13671875 -0.95703125 -0.44921875 -1.3671875 q-0.5859375 -0.72265625 -1.93359375 -1.38671875 q1.69921875 -0.76171875 2.16796875 -2.44140625 q0.13671875 -0.46875 0.21484375 -0.9375 q0.48828125 -3.4375 3.4765625 -5.859375 q2.890625 -2.34375 6.46484375 -2.34375 q3.7109375 0 6.42578125 2.6171875 q2.8125 2.6953125 2.8125 6.62109375 q0 0.13671875 -0.009765625 0.2734375 t0.0097656 0.25391 q0.0390625 0.25390625 0.3125 0.29296875 q0.3515625 0.44921875 0.3515625 0.95703125 q0 1.171875 -1.25 1.38671875 q-0.3125 0.05859375 -0.9765625 0.15625 l-11.016 1.7578 l0 1.875 q0 2.265625 1.3671875 3.59375 q1.2890625 1.26953125 3.26171875 1.26953125 q2.08984375 0 3.359375 -0.859375 q1.19140625 -0.8203125 1.19140625 -2.1484375 q0 -0.3125 -0.09765625 -0.703125 z M145.0159375 27.793 l0 -5.4688 q0 -1.2890625 -0.5078125 -1.89453125 q-0.8984375 -1.03515625 -1.77734375 -1.03515625 t-1.4648 0.26367 t-1.0156 0.83008 q-0.8984375 1.19140625 -0.8984375 3.7109375 l0 4.5117 z M147.9059375 27.305 l0 -0.60547 q0 -3.6328125 -0.60546875 -4.39453125 q-0.2734375 -0.33203125 -0.60546875 -0.48828125 l0 5.6836 z M136.1679375 34.8242 q0.2734375 -0.21484375 0.2734375 -0.48828125 q0 -0.4296875 -0.17578125 -1.09375 q-0.80078125 -3.06640625 -0.80078125 -4.267578125 t0.078125 -1.875 t0.21484 -1.3574 q0.234375 -1.328125 0.5078125 -2.34375 q0.17578125 -0.6640625 0.17578125 -0.8984375 q0 -0.46875 -0.2734375 -0.68359375 q-0.8203125 0.9765625 -1.25 2.6171875 t-0.70313 2.8906 q-0.09765625 0.52734375 -1.15234375 1.015625 q1.0546875 0.48828125 1.15234375 0.9765625 q0.72265625 3.30078125 1.19140625 4.19921875 t0.76172 1.3086 z M166.291140625 36.1621 q0.21484375 -0.595703125 0.21484375 -1.25 t-0.078125 -1.2012 q0.13671875 -0.29296875 0.7421875 -0.458984375 t0.80078 -0.16602 q0.7421875 0 1.19140625 0.556640625 t0.44922 1.543 t-0.57617 1.9434 t-1.5332 1.6992 q-2.12890625 1.66015625 -4.9609375 1.66015625 q-5.390625 0 -7.1484375 -4.08203125 q-0.64453125 -1.50390625 -0.64453125 -3.76953125 l0 -2.3828 q0 -0.91796875 -2.01171875 -1.93359375 q2.01171875 -1.15234375 2.01171875 -3.10546875 l0 -2.3047 q0 -2.2265625 -1.81640625 -2.2265625 q-0.6640625 0 -1.09375 0.33203125 q-0.2734375 -0.37109375 -0.2734375 -0.771484375 t0.14648 -0.87891 t0.51758 -0.86914 q0.9375 -1.015625 2.91015625 -0.703125 l0 -0.625 q0 -2.05078125 1.03515625 -3.61328125 q0.91796875 -1.40625 1.630859375 -1.40625 t1.1035 0.48828 q0.33203125 -1.54296875 0.87890625 -2.2265625 t1.5625 -0.68359 l0 8.1445 l6.3477 0 q0.15625 0.3125 0.15625 1.044921875 t-0.56641 1.1719 t-1.3672 0.43945 l-4.5703 0 l0 13.223 q0 3.3984375 1.54296875 3.984375 q0.44921875 0.15625 0.966796875 0.15625 t0.99609 -0.18555 t0.84961 -0.56641 t0.58594 -0.97656 z M156.623040625 34.8242 q0.91796875 -0.5859375 1.03515625 -2.44140625 q0.078125 -1.328125 0.087890625 -2.0703125 t0.019531 -1.2012 t0.0097656 -0.71289 l0 -0.78125 q0 -0.56640625 -0.009765625 -1.455078125 t-0.019531 -1.9336 t-0.048828 -2.002 q-0.05859375 -2.3046875 -0.17578125 -2.8125 q-0.234375 -1.1328125 -0.8984375 -1.5625 l0 6.0938 q0 2.71484375 -0.087890625 2.87109375 t-0.14648 0.37109 q-0.17578125 0.5859375 -1.328125 0.9765625 q1.171875 0.41015625 1.328125 0.99609375 q0.234375 0.9375 0.234375 4.39453125 l0 1.2695 z M179.486290625 39.86328 q-0.72265625 0.52734375 -1.650390625 0.52734375 t-1.4844 -0.47852 t-0.55664 -1.1035 t0.19531 -0.91797 q0.56640625 0.33203125 1.787109375 0.33203125 t2.0215 -1.6602 l0 -9.375 q0 -0.91796875 -0.390625 -1.3671875 q-0.5859375 -0.703125 -1.9921875 -1.38671875 q1.42578125 -0.68359375 1.796875 -1.1328125 q0.5859375 -0.7421875 0.5859375 -1.66015625 l0 -8.2422 q-0.6640625 -1.50390625 -2.40234375 -1.50390625 q-0.6640625 0 -1.09375 0.33203125 q-0.21484375 -0.29296875 -0.21484375 -0.68359375 t0.19531 -0.72266 t0.50781 -0.58594 q0.68359375 -0.5078125 1.845703125 -0.5078125 t1.9824 0.64453 q0.546875 -0.64453125 1.50390625 -0.64453125 t1.543 0.66406 q0.56640625 -0.6640625 1.162109375 -0.6640625 t0.89844 0.11719 t0.51758 0.3125 q0.3125 0.25390625 0.703125 0.99609375 l12.109 21.816 l0 -5.957 q0 -0.859375 -0.37109375 -1.26953125 q-0.56640625 -0.60546875 -2.01171875 -1.30859375 q1.34765625 -0.6640625 1.73828125 -1.07421875 q0.64453125 -0.68359375 0.64453125 -1.5234375 l0 -8.1836 q-0.44921875 -0.8203125 -1.103515625 -1.2890625 t-1.4844 -0.46875 t-1.3965 0.33203 q-0.21484375 -0.3515625 -0.21484375 -0.966796875 t0.60547 -1.0742 t1.582 -0.45898 t1.7383 0.50781 q0.68359375 -0.5078125 1.572265625 -0.5078125 t1.5723 0.52734 q0.76171875 -0.52734375 1.6796875 -0.52734375 t1.4746 0.47852 t0.55664 1.1035 t-0.19531 0.91797 q-0.56640625 -0.33203125 -1.81640625 -0.33203125 t-1.9922 1.6797 l0 8.2617 q0 0.83984375 0.3515625 1.23046875 q0.5859375 0.64453125 2.03125 1.3671875 q-1.58203125 0.859375 -1.89453125 1.19140625 q-0.48828125 0.52734375 -0.48828125 1.38671875 l0.35156 9.9219 q0.703125 1.2890625 2.20703125 1.2890625 q0.6640625 0 1.09375 -0.33203125 q0.21484375 0.29296875 0.21484375 0.68359375 t-0.19531 0.72266 t-0.50781 0.58594 q-0.68359375 0.5078125 -1.66015625 0.5078125 t-1.7578 -0.39063 q-1.54296875 0.87890625 -3.14453125 -0.13671875 q-0.625 0.52734375 -1.19140625 0.52734375 t-0.83984 -0.097656 t-0.50781 -0.35156 q-0.37109375 -0.37109375 -1.15234375 -1.85546875 l-12.012 -20.703 l0 19.18 q0.80078125 1.66015625 2.03125 1.66015625 t1.7969 -0.33203 q0.21484375 0.3515625 0.21484375 0.966796875 t-0.60547 1.0742 t-1.5625 0.45898 t-1.7578 -0.48828 q-0.703125 0.48828125 -1.611328125 0.48828125 t-1.5527 -0.52734 z M194.759390625 34.8242 q0.13671875 -0.17578125 0.13671875 -0.556640625 t-0.10742 -0.85938 t-0.30273 -1.0254 q-0.41015625 -1.09375 -1.07421875 -2.34375 l-8.2813 -14.453 q-0.13671875 0.21484375 -0.13671875 0.78125 q0 1.2109375 1.66015625 4.23828125 z M209.13088125 34.8437 q-0.712890625 -1.71875 -0.869140625 -2.94921875 t-0.26367 -1.582 t-0.36133 -0.66406 q-0.5078125 -0.64453125 -1.85546875 -1.30859375 q1.69921875 -0.76171875 2.16796875 -2.44140625 q0.13671875 -0.46875 0.21484375 -0.9375 q0.5078125 -3.49609375 3.37890625 -5.849609375 t6.6992 -2.3535 q3.984375 0 6.85546875 2.3828125 q2.79296875 2.32421875 3.30078125 5.8203125 q0.17578125 1.23046875 0.52734375 1.796875 q0.6640625 1.03515625 1.85546875 1.58203125 q-1.328125 0.64453125 -1.71875 1.1328125 q-0.52734375 0.68359375 -0.6640625 1.62109375 q-0.625 4.609375 -3.203125 7.001953125 t-6.875 2.3926 q-4.609375 0 -7.24609375 -2.67578125 q-1.23046875 -1.25 -1.943359375 -2.96875 z M218.28128125 19.512 q-3.3203125 0 -3.3203125 4.8828125 l0 8.6523 q0 4.6875 3.30078125 4.6875 q3.33984375 0 3.33984375 -4.6875 l0 -8.6523 q0 -4.8828125 -3.3203125 -4.8828125 z M223.47628125 34.8242 q0.9765625 -0.37109375 1.07421875 -2.55859375 q0.1171875 -2.1875 0.1171875 -3.251953125 t-0.0097656 -1.7773 t-0.029297 -1.4746 q-0.078125 -2.8515625 -0.44921875 -3.3203125 t-0.70313 -0.625 l0 13.008 z M211.77738125 34.8242 q0.2734375 -0.21484375 0.2734375 -0.48828125 q0 -0.4296875 -0.17578125 -1.09375 q-0.80078125 -3.06640625 -0.80078125 -4.267578125 t0.078125 -1.875 t0.19531 -1.3574 q0.25390625 -1.328125 0.52734375 -2.34375 q0.17578125 -0.6640625 0.17578125 -0.8984375 q0 -0.46875 -0.2734375 -0.68359375 q-0.8203125 0.9765625 -1.25 2.6171875 t-0.70313 2.8906 q-0.09765625 0.52734375 -1.15234375 1.015625 q1.0546875 0.48828125 1.15234375 0.9765625 q0.72265625 3.30078125 1.19140625 4.19921875 t0.76172 1.3086 z M236.998028125 14.16 q-0.99609375 0 -1.923828125 -0.52734375 t-1.416 -1.4063 q-0.52734375 -0.8984375 -1.40625 -1.3671875 q-0.2734375 -0.13671875 -0.625 -0.29296875 l0.66406 -0.41016 q0.9375 -0.5859375 1.38671875 -1.42578125 t1.3574 -1.3184 t1.9629 -0.47852 q2.1875 0 3.1640625 1.8359375 q0.6640625 1.2109375 2.05078125 1.796875 q-0.29296875 0.17578125 -0.576171875 0.3125 t-0.53711 0.3125 q-0.56640625 0.390625 -1.005859375 1.15234375 t-1.2695 1.2891 t-1.8262 0.52734 z M235.777328125 11.279 q-0.068359375 -0.283203125 -0.068359375 -1.005859375 t0.74219 -1.8359 q-0.72265625 0 -1.015625 0.263671875 t-0.43945 0.44922 t-0.25391 0.37109 t-0.26367 0.40039 q-0.37109375 0.52734375 -0.60546875 0.64453125 q0.3125 0.17578125 0.576171875 0.556640625 t0.61523 0.79102 q0.52734375 0.64453125 1.38671875 0.64453125 q-0.1171875 -0.21484375 -0.244140625 -0.400390625 t-0.24414 -0.39063 t-0.18555 -0.48828 z M235.044928125 39.76562 q-0.8984375 0.625 -2.041015625 0.625 t-1.6992 -0.50781 t-0.55664 -0.97656 q0 -0.64453125 0.2734375 -1.015625 q0.4296875 0.33203125 1.26953125 0.33203125 t1.4453 -1.0938 l0 -6.2305 q0 -0.859375 -0.3515625 -1.25 q-0.56640625 -0.5859375 -2.03125 -1.30859375 q1.3671875 -0.625 1.73828125 -0.99609375 q0.64453125 -0.64453125 0.64453125 -1.58203125 l0 -2.8516 q0 -1.66015625 -1.1328125 -1.796875 q-0.33203125 -0.0390625 -0.83984375 -0.0390625 t-0.9375 0.33203 q-0.2734375 -0.37109375 -0.2734375 -0.771484375 t0.20508 -0.89844 t0.63477 -0.94727 q1.015625 -1.0546875 2.34375 -1.0546875 t2.4023 0.46875 q0.95703125 -1.25 2.1875 -1.25 q2.01171875 0 2.01171875 2.109375 l0 6.6992 q0 0.9375 0.41015625 1.34765625 q0.60546875 0.60546875 1.97265625 1.23046875 q-1.46484375 0.72265625 -1.8359375 1.09375 q-0.546875 0.60546875 -0.546875 1.46484375 l0 6.2891 q0.64453125 1.03515625 1.46484375 1.03515625 t1.25 -0.33203 q0.2734375 0.37109375 0.2734375 0.927734375 t-0.55664 1.0645 t-1.6699 0.50781 t-2.0703 -0.625 q-0.80078125 0.625 -1.93359375 0.625 t-2.0508 -0.625 z M236.753928125 29.395 q0.009765625 -0.44921875 0.009765625 -0.72265625 l0 -0.52734 q0 -0.29296875 -0.009765625 -0.76171875 t-0.019531 -1.0352 t-0.029297 -1.1133 q-0.078125 -1.34765625 -0.1953125 -1.85546875 q-0.234375 -1.1328125 -0.8984375 -1.5625 l0 1.2695 q0 3.30078125 -0.146484375 3.876953125 t-0.46875 0.85938 t-0.94727 0.49805 q1.171875 0.41015625 1.328125 0.99609375 q0.234375 0.9375 0.234375 4.23828125 l0 1.2695 q0.8984375 -0.5859375 1.015625 -2.40234375 q0.09765625 -1.25 0.107421875 -1.9140625 t0.019531 -1.1133 z M246.98438125 39.76562 q-0.8984375 0.625 -2.05078125 0.625 t-1.6699 -0.53711 t-0.51758 -1.0254 q0 -0.64453125 0.21484375 -0.9375 q0.4296875 0.33203125 1.09375 0.33203125 q1.25 0 1.62109375 -1.2109375 l0 -5.918 q0 -0.8984375 -0.3515625 -1.328125 q-0.625 -0.76171875 -2.03125 -1.4453125 q2.3828125 -1.09375 2.3828125 -3.359375 l0 -2.0508 q0 -1.66015625 -1.1328125 -1.796875 q-0.33203125 -0.0390625 -0.83984375 -0.0390625 t-0.9375 0.33203 q-0.2734375 -0.37109375 -0.2734375 -0.771484375 t0.20508 -0.89844 t0.63477 -0.94727 q1.015625 -1.0546875 2.373046875 -1.0546875 t2.2559 0.42969 q1.07421875 -1.2109375 2.3046875 -1.2109375 q1.9140625 0 1.9140625 2.109375 l0 2.6758 q1.953125 -4.8046875 6.2109375 -4.8046875 q1.9140625 0 3.10546875 1.171875 q1.23046875 1.19140625 1.23046875 3.30078125 l0 0.27344 q0 0.13671875 -0.0390625 0.556640625 t0.029297 0.84961 t0.22461 0.70313 q0.21484375 0.41015625 0.80078125 0.64453125 q-0.13671875 0.52734375 -0.634765625 0.947265625 t-1.1035 0.41992 l-0.37109 0 q-0.76171875 0.95703125 -2.12890625 1.34765625 q-0.390625 0.1171875 -0.849609375 0.1171875 t-0.80078 -0.20508 t-0.38086 -0.43945 q0.37109375 -0.17578125 0.37109375 -0.703125 l0 -0.097656 q-0.15625 0.0390625 -0.2734375 0.0390625 l-0.19531 0 q-0.64453125 0 -1.162109375 -0.48828125 t-0.67383 -1.2305 q1.0546875 0.0390625 1.8359375 -0.78125 q0.703125 -0.72265625 0.703125 -1.484375 q0 -1.796875 -1.5625 -1.796875 q-1.34765625 0 -2.71484375 2.1484375 q-1.2890625 1.97265625 -1.62109375 4.08203125 l0 10.566 q0.21484375 0.68359375 0.6640625 1.015625 t1.2305 0.33203 t1.2109 -0.33203 q0.21484375 0.29296875 0.21484375 0.859375 t-0.51758 1.1035 t-1.7383 0.53711 t-2.334 -0.66406 q-0.78125 0.6640625 -1.89453125 0.6640625 t-2.0313 -0.625 z M248.69338125 29.395 q0.009765625 -0.44921875 0.009765625 -0.72265625 l0 -0.52734 q0 -0.29296875 -0.009765625 -0.751953125 t-0.019531 -1.0352 t-0.029297 -1.123 q-0.1171875 -2.03125 -0.439453125 -2.607421875 t-0.6543 -0.79102 l0 1.2695 q0 3.28125 -0.146484375 3.857421875 t-0.46875 0.85938 t-0.94727 0.49805 q1.171875 0.41015625 1.328125 0.99609375 q0.234375 0.9375 0.234375 4.21875 l0 1.2695 q0.8984375 -0.5859375 1.015625 -2.3828125 q0.09765625 -1.26953125 0.107421875 -1.923828125 t0.019531 -1.1035 z"></path></g></svg>